<svg height="512pt" viewBox="0 0 512 512.00006" width="512pt" xmlns="http://www.w3.org/2000/svg"><path d="m261.039062 512c-1.695312 0-3.390624 0-5.097656-.007812-40.132812.097656-77.214844-.921876-113.277344-3.117188-33.0625-2.011719-63.242187-13.4375-87.28125-33.039062-23.195312-18.914063-39.035156-44.488282-47.078124-76.003907-7-27.4375-7.371094-54.371093-7.726563-80.421875-.257813-18.691406-.5234375-40.839844-.578125-63.363281.0546875-22.617187.320312-44.765625.578125-63.457031.355469-26.046875.726563-52.980469 7.726563-80.421875 8.042968-31.515625 23.882812-57.089844 47.078124-76.003907 24.039063-19.601562 54.21875-31.027343 87.285157-33.039062 36.0625-2.191406 73.152343-3.2148438 113.371093-3.1171875 40.144532-.0859375 77.214844.9257815 113.277344 3.1171875 33.0625 2.011719 63.242188 13.4375 87.28125 33.039062 23.199219 18.914063 39.035156 44.488282 47.078125 76.003907 7 27.4375 7.371094 54.375 7.726563 80.421875.257812 18.691406.527344 40.839844.578125 63.363281-.050781 22.617187-.320313 44.765625-.578125 63.457031-.148438 11.046875-9.273438 19.875-20.269532 19.726563-11.046874-.152344-19.875-9.230469-19.726562-20.273438.253906-18.582031.523438-40.585937.574219-62.910156-.050781-22.230469-.320313-44.234375-.574219-62.816406-.324219-23.714844-.660156-48.238281-6.488281-71.078125-5.878907-23.039063-17.183594-41.507813-33.597657-54.894532-17.753906-14.480468-39.433593-22.59375-64.433593-24.113281-35.214844-2.140625-71.464844-3.128906-110.847657-3.046875-39.476562-.09375-75.730468.90625-110.945312 3.046875-25 1.519531-46.675781 9.632813-64.433594 24.109375-16.414062 13.386719-27.71875 31.855469-33.597656 54.898438-5.828125 22.839844-6.164062 47.363281-6.488281 71.078125-.253907 18.582031-.519531 40.585937-.574219 62.910156.054688 22.230469.320312 44.234375.574219 62.816406.324219 23.714844.660156 48.238281 6.488281 71.078125 5.878906 23.039063 17.183594 41.507813 33.597656 54.894532 17.757813 14.480468 39.433594 22.59375 64.433594 24.113281 35.214844 2.140625 71.476562 3.140625 110.851562 3.042969 39.480469.09375 75.726563-.902344 110.941407-3.042969 25-1.519531 46.675781-9.632813 64.433593-24.113281 11.824219-9.644532 21.0625-22.019532 27.457032-36.785157 4.390625-10.132812 16.164062-14.792969 26.300781-10.402343 10.136719 4.390624 14.792969 16.164062 10.40625 26.300781-8.964844 20.699219-22.046875 38.15625-38.886719 51.886719-24.039062 19.605468-54.21875 31.027343-87.28125 33.039062-34.535156 2.101562-70.011718 3.125-108.277344 3.125zm118.949219-256c0-68.925781-56.074219-125-125-125-68.921875 0-125 56.074219-125 125s56.078125 125 125 125c68.925781 0 125-56.074219 125-125zm-40 0c0 46.867188-38.128906 85-85 85-46.867187 0-85-38.132812-85-85s38.132813-85 85-85c46.871094 0 85 38.132812 85 85zm54-165c-16.566406 0-30 13.429688-30 30s13.433594 30 30 30c16.570313 0 30-13.429688 30-30s-13.429687-30-30-30zm0 0"/></svg>